# xmcd CD database file
#
# Track frame offsets:
#	150
#	17441
#	44815
#	68761
#	93196
#	114704
#	132874
#	152349
#	197482
#
# Disc length: 3152 seconds
#
# Revision: 0
# Processed by: cddbd v1.5PL3 Copyright (c) Steve Scherf et al.
# Submitted via: CDex 1.51
#
DISCID=6c0c4e09
DTITLE=Dan Thouin - Oscilloscope
DYEAR=2004
DGENRE=Jazz
TTITLE0=Mile End (Instrumental)
TTITLE1=En Attendant l'hiver (Frederic Gary Comeau)
TTITLE2=Anti-Héros (Arianne Moffat)
TTITLE3=Yamaha (Instrumental)
TTITLE4=Possession (Pierra Flynn)
TTITLE5=Over the Moon (Carl Bastien)
TTITLE6=Fingerprints (Betty Bonifassi)
TTITLE7=La vérité (Raôul Duguay)
TTITLE8=L'étoile dans le coeur (Raôul Duguay)
EXTD=YEAR: 2004
EXTT0=
EXTT1=
EXTT2=
EXTT3=
EXTT4=
EXTT5=
EXTT6=
EXTT7=
EXTT8=
PLAYORDER=
